<svg width="40" height="40" viewBox="0 0 40 40" fill="none" xmlns="http://www.w3.org/2000/svg">
<path fill-rule="evenodd" clip-rule="evenodd" d="M4 0C1.79086 0 -0.0207144 1.79527 0.199835 3.99337C0.589436 7.87633 1.54593 11.6887 3.04482 15.3073C4.46559 18.7374 6.35401 21.9459 8.65071 24.844C10.0363 26.5923 12.617 26.5991 14.1944 25.0217L19.118 20.0981V20.0981C19.1429 20.0732 19.1628 20.0437 19.1874 20.0184C20.1788 18.9998 20.655 17.0165 20.655 15.59C20.655 13.726 19.432 11.4888 18.4862 10.0372C18.3554 9.83641 18.721 9.47077 18.9218 9.60159C20.3733 10.5474 22.6106 11.7704 24.4746 11.7704C26.3386 11.7704 28.5759 10.5474 30.0275 9.60159C30.2282 9.47077 30.5939 9.83641 30.463 10.0372C29.5172 11.4888 28.2943 13.726 28.2943 15.59C28.2943 17.454 29.5172 19.6913 30.463 21.1429C30.5939 21.3436 30.2282 21.7093 30.0275 21.5785C28.5759 20.6326 26.3386 19.4097 24.4746 19.4097C23.0481 19.4097 21.0649 19.8858 20.0462 20.8772C20.0209 20.9018 19.9915 20.9217 19.9665 20.9467V20.9467L15.0505 25.8627C13.4705 27.4427 13.4804 30.0284 15.235 31.4117C18.1124 33.6802 21.2938 35.5473 24.6927 36.9552C28.3113 38.4541 32.1237 39.4106 36.0066 39.8002C38.2047 40.0207 40 38.2091 40 36V4C40 1.79086 38.2091 0 36 0H4ZM6.07304 40C8.24184 40 10.0688 38.1769 9.2388 36.1732V36.1732C8.73625 34.9599 7.99966 33.8575 7.07107 32.9289C6.14249 32.0003 5.04009 31.2638 3.82684 30.7612V30.7612C1.82312 29.9312 3.6478e-06 31.7582 3.6478e-06 33.927V36C3.6478e-06 38.2091 1.79086 40 4 40H6.07304Z" fill="url(#paint0_linear_367_144)"/>
<defs>
<linearGradient id="paint0_linear_367_144" x1="-1.72659e-06" y1="40" x2="16.5976" y2="-8.07889" gradientUnits="userSpaceOnUse">
<stop stop-color="#607AFF"/>
<stop offset="0.686762" stop-color="#8DD3FF"/>
<stop offset="1" stop-color="#B4D0FF"/>
</linearGradient>
</defs>
</svg>
